<svg width="275" height="81" viewBox="0 0 275 81" fill="none" xmlns="http://www.w3.org/2000/svg">
<rect x="8" y="8.69141" width="63.4497" height="63.4497" rx="10.0057" fill="white"/>
<path d="M107.695 65.6277C104.115 65.6277 100.994 64.8052 98.3335 63.1603C95.7209 61.5153 93.6889 59.193 92.2375 56.1934C90.7861 53.1454 90.0603 49.5894 90.0603 45.5253C90.0603 41.4613 90.7861 37.9295 92.2375 34.9299C93.6889 31.9303 95.7209 29.608 98.3335 27.963C100.994 26.2697 104.115 25.423 107.695 25.423C110.646 25.423 113.259 25.9552 115.533 27.0196C117.855 28.0356 119.742 29.5354 121.194 31.519C122.645 33.5026 123.588 35.9217 124.024 38.7762L117.638 39.2116C117.202 36.6474 116.089 34.688 114.299 33.3333C112.509 31.9303 110.308 31.2287 107.695 31.2287C104.163 31.2287 101.406 32.5108 99.4221 35.075C97.4385 37.5908 96.4466 41.0743 96.4466 45.5253C96.4466 49.9764 97.4385 53.484 99.4221 56.0482C101.406 58.5641 104.163 59.822 107.695 59.822C110.308 59.822 112.509 59.0962 114.299 57.6448C116.089 56.1934 117.202 54.0162 117.638 51.1134L124.024 51.5488C123.588 54.4033 122.645 56.8949 121.194 59.0237C119.742 61.1041 117.855 62.7248 115.533 63.886C113.259 65.0471 110.646 65.6277 107.695 65.6277ZM144.208 65.6277C140.386 65.6277 137.314 64.3456 134.992 61.7814C132.718 59.1688 131.581 55.5886 131.581 51.0408V26.2939H137.677V49.3716C137.677 53.097 138.33 55.8547 139.636 57.6448C140.991 59.3865 143.047 60.2574 145.805 60.2574C148.853 60.2574 151.248 59.2898 152.99 57.3545C154.731 55.3709 155.602 52.6616 155.602 49.2265V26.2939H161.698V64.7568H155.892V55.2499L156.836 55.758C156.062 58.9027 154.586 61.346 152.409 63.0877C150.232 64.781 147.498 65.6277 144.208 65.6277ZM189.896 65.6277C187.235 65.6277 184.864 65.0471 182.784 63.886C180.703 62.6764 179.107 61.0315 177.994 58.9511L177.776 64.7568H172.261V13.231H178.357V31.6642C179.324 30.0676 180.824 28.6403 182.856 27.3824C184.888 26.0761 187.235 25.423 189.896 25.423C193.282 25.423 196.209 26.2455 198.677 27.8904C201.144 29.5354 203.055 31.8577 204.41 34.8573C205.765 37.8569 206.442 41.413 206.442 45.5253C206.442 49.6377 205.765 53.1938 204.41 56.1934C203.055 59.193 201.144 61.5153 198.677 63.1603C196.209 64.8052 193.282 65.6277 189.896 65.6277ZM189.533 59.822C192.774 59.822 195.339 58.5399 197.225 55.9757C199.112 53.4115 200.056 49.928 200.056 45.5253C200.056 41.0743 199.112 37.5908 197.225 35.075C195.339 32.5108 192.823 31.2287 189.678 31.2287C187.307 31.2287 185.275 31.8093 183.582 32.9705C181.889 34.0832 180.582 35.704 179.663 37.8328C178.792 39.9615 178.357 42.5257 178.357 45.5253C178.357 48.4282 178.792 50.9682 179.663 53.1454C180.582 55.2741 181.864 56.9191 183.509 58.0802C185.203 59.2414 187.211 59.822 189.533 59.822ZM214.712 64.7568V26.2939H220.808V64.7568H214.712ZM214.567 20.2704V13.1584H220.954V20.2704H214.567ZM246.744 65.6277C243.163 65.6277 240.043 64.8052 237.382 63.1603C234.769 61.5153 232.737 59.193 231.286 56.1934C229.834 53.1454 229.109 49.5894 229.109 45.5253C229.109 41.4613 229.834 37.9295 231.286 34.9299C232.737 31.9303 234.769 29.608 237.382 27.963C240.043 26.2697 243.163 25.423 246.744 25.423C249.695 25.423 252.307 25.9552 254.581 27.0196C256.904 28.0356 258.791 29.5354 260.242 31.519C261.693 33.5026 262.637 35.9217 263.072 38.7762L256.686 39.2116C256.251 36.6474 255.138 34.688 253.348 33.3333C251.558 31.9303 249.356 31.2287 246.744 31.2287C243.212 31.2287 240.454 32.5108 238.47 35.075C236.487 37.5908 235.495 41.0743 235.495 45.5253C235.495 49.9764 236.487 53.484 238.47 56.0482C240.454 58.5641 243.212 59.822 246.744 59.822C249.356 59.822 251.558 59.0962 253.348 57.6448C255.138 56.1934 256.251 54.0162 256.686 51.1134L263.072 51.5488C262.637 54.4033 261.693 56.8949 260.242 59.0237C258.791 61.1041 256.904 62.7248 254.581 63.886C252.307 65.0471 249.695 65.6277 246.744 65.6277Z" fill="white"/>
</svg>
