<svg width="58" height="18" viewBox="0 0 58 18" fill="none" xmlns="http://www.w3.org/2000/svg">
<rect x="0.101562" y="2.5" width="12" height="12" rx="2" fill="white"/>
<path d="M23.1009 14V6.36364H24.5277V7.60653H24.6222C24.7813 7.18561 25.0414 6.85748 25.4027 6.62216C25.764 6.38352 26.1965 6.2642 26.7003 6.2642C27.2107 6.2642 27.6383 6.38352 27.983 6.62216C28.331 6.8608 28.5878 7.18892 28.7536 7.60653H28.8331C29.0154 7.19886 29.3054 6.87405 29.7031 6.6321C30.1009 6.38684 30.5748 6.2642 31.125 6.2642C31.8177 6.2642 32.3828 6.4813 32.8203 6.91548C33.2611 7.34967 33.4815 8.00426 33.4815 8.87926V14H31.995V9.01847C31.995 8.50142 31.8542 8.12689 31.5724 7.89489C31.2907 7.66288 30.9543 7.54688 30.5632 7.54688C30.0793 7.54688 29.7031 7.69602 29.4347 7.99432C29.1662 8.2893 29.032 8.6688 29.032 9.13281V14H27.5504V8.92401C27.5504 8.50971 27.4212 8.17661 27.1626 7.92472C26.9041 7.67282 26.5677 7.54688 26.1534 7.54688C25.8717 7.54688 25.6115 7.62145 25.3729 7.7706C25.1375 7.91643 24.947 8.12026 24.8011 8.3821C24.6586 8.64394 24.5874 8.94721 24.5874 9.2919V14H23.1009ZM35.4739 14V6.36364H36.9107V7.5767H36.9902C37.1294 7.16572 37.3747 6.84257 37.726 6.60724C38.0807 6.36861 38.4817 6.24929 38.9292 6.24929C39.022 6.24929 39.1313 6.2526 39.2573 6.25923C39.3865 6.26586 39.4876 6.27415 39.5605 6.28409V7.70597C39.5009 7.68939 39.3948 7.67116 39.2424 7.65128C39.0899 7.62808 38.9374 7.61648 38.785 7.61648C38.4337 7.61648 38.1204 7.69105 37.8453 7.8402C37.5736 7.98603 37.3581 8.18987 37.199 8.4517C37.04 8.71023 36.9604 9.00521 36.9604 9.33665V14H35.4739ZM43.7752 17.0227C43.1687 17.0227 42.6467 16.9432 42.2092 16.7841C41.775 16.625 41.4203 16.4145 41.1452 16.1527C40.8701 15.8909 40.6647 15.6042 40.5288 15.2926L41.8065 14.7656C41.896 14.9115 42.0153 15.0656 42.1644 15.228C42.3169 15.3937 42.5224 15.5346 42.7809 15.6506C43.0427 15.7666 43.3791 15.8246 43.7901 15.8246C44.3536 15.8246 44.8192 15.687 45.1871 15.4119C45.555 15.1402 45.739 14.706 45.739 14.1094V12.608H45.6445C45.555 12.7704 45.4258 12.951 45.2567 13.1499C45.091 13.3487 44.8623 13.5211 44.5707 13.6669C44.279 13.8127 43.8995 13.8857 43.4322 13.8857C42.829 13.8857 42.2854 13.7448 41.8015 13.4631C41.3209 13.178 40.9397 12.7588 40.658 12.2053C40.3796 11.6484 40.2404 10.964 40.2404 10.152C40.2404 9.33996 40.378 8.64394 40.6531 8.06392C40.9315 7.4839 41.3126 7.03977 41.7965 6.73153C42.2804 6.41998 42.829 6.2642 43.4421 6.2642C43.9161 6.2642 44.2989 6.34375 44.5906 6.50284C44.8822 6.65862 45.1093 6.84091 45.2717 7.04972C45.4374 7.25852 45.565 7.44247 45.6545 7.60156H45.7638V6.36364H47.2205V14.169C47.2205 14.8253 47.0681 15.3639 46.7631 15.7848C46.4582 16.2057 46.0456 16.5173 45.5252 16.7195C45.0082 16.9216 44.4248 17.0227 43.7752 17.0227ZM43.7603 12.6527C44.1879 12.6527 44.5491 12.5533 44.8441 12.3544C45.1424 12.1522 45.3678 11.8639 45.5202 11.4893C45.676 11.1115 45.7539 10.6591 45.7539 10.1321C45.7539 9.61837 45.6777 9.16596 45.5252 8.77486C45.3728 8.38376 45.149 8.07884 44.854 7.86009C44.5591 7.63802 44.1945 7.52699 43.7603 7.52699C43.3129 7.52699 42.94 7.64299 42.6417 7.875C42.3434 8.10369 42.118 8.41525 41.9656 8.80966C41.8164 9.20407 41.7418 9.64489 41.7418 10.1321C41.7418 10.6326 41.8181 11.0717 41.9705 11.4496C42.123 11.8274 42.3484 12.1224 42.6467 12.3345C42.9483 12.5466 43.3195 12.6527 43.7603 12.6527ZM52.5053 14.1541C51.753 14.1541 51.105 13.9934 50.5614 13.6719C50.0212 13.3471 49.6036 12.8913 49.3086 12.3047C49.0169 11.7147 48.8711 11.0237 48.8711 10.2315C48.8711 9.44934 49.0169 8.75994 49.3086 8.16335C49.6036 7.56676 50.0146 7.10109 50.5415 6.76633C51.0719 6.43158 51.6916 6.2642 52.4009 6.2642C52.8318 6.2642 53.2494 6.33546 53.6538 6.47798C54.0581 6.6205 54.421 6.84422 54.7425 7.14915C55.064 7.45407 55.3176 7.85014 55.5032 8.33736C55.6888 8.82126 55.7816 9.40956 55.7816 10.1023V10.6293H49.7113V9.51562H54.3249C54.3249 9.12453 54.2454 8.77817 54.0863 8.47656C53.9272 8.17164 53.7035 7.93134 53.4151 7.75568C53.1301 7.58002 52.7953 7.49219 52.4109 7.49219C51.9933 7.49219 51.6287 7.59493 51.3171 7.80043C51.0089 8.0026 50.7702 8.26776 50.6012 8.59588C50.4355 8.92069 50.3526 9.27367 50.3526 9.65483V10.5249C50.3526 11.0353 50.4421 11.4695 50.6211 11.8274C50.8034 12.1854 51.0569 12.4588 51.3817 12.6477C51.7066 12.8333 52.0861 12.9261 52.5202 12.9261C52.802 12.9261 53.0588 12.8864 53.2908 12.8068C53.5228 12.724 53.7234 12.6013 53.8924 12.4389C54.0614 12.2765 54.1907 12.076 54.2802 11.8374L55.6871 12.0909C55.5745 12.5052 55.3723 12.8681 55.0806 13.1797C54.7923 13.4879 54.4293 13.7282 53.9918 13.9006C53.5576 14.0696 53.0621 14.1541 52.5053 14.1541Z" fill="white"/>
</svg>
