<svg width="58" height="14" viewBox="0 0 58 14" fill="none" xmlns="http://www.w3.org/2000/svg">
<rect x="0.101562" width="12" height="12" rx="2" fill="white"/>
<path d="M23.1009 10.6367V3.00035H24.5277V4.24325H24.6222C24.7813 3.82232 25.0414 3.4942 25.4027 3.25888C25.764 3.02024 26.1965 2.90092 26.7003 2.90092C27.2107 2.90092 27.6383 3.02024 27.983 3.25888C28.331 3.49751 28.5878 3.82564 28.7536 4.24325H28.8331C29.0154 3.83558 29.3054 3.51077 29.7031 3.26882C30.1009 3.02356 30.5748 2.90092 31.125 2.90092C31.8177 2.90092 32.3828 3.11802 32.8203 3.5522C33.2611 3.98639 33.4815 4.64098 33.4815 5.51598V10.6367H31.995V5.65518C31.995 5.13814 31.8542 4.76361 31.5724 4.5316C31.2907 4.2996 30.9543 4.18359 30.5632 4.18359C30.0793 4.18359 29.7031 4.33274 29.4347 4.63104C29.1662 4.92602 29.032 5.30552 29.032 5.76953V10.6367H27.5504V5.56072C27.5504 5.14642 27.4212 4.81333 27.1626 4.56143C26.9041 4.30954 26.5677 4.18359 26.1534 4.18359C25.8717 4.18359 25.6115 4.25817 25.3729 4.40732C25.1375 4.55315 24.947 4.75698 24.8011 5.01882C24.6586 5.28066 24.5874 5.58393 24.5874 5.92862V10.6367H23.1009ZM35.4739 10.6367V3.00035H36.9107V4.21342H36.9902C37.1294 3.80244 37.3747 3.47928 37.726 3.24396C38.0807 3.00533 38.4817 2.88601 38.9292 2.88601C39.022 2.88601 39.1313 2.88932 39.2573 2.89595C39.3865 2.90258 39.4876 2.91087 39.5605 2.92081V4.34268C39.5009 4.32611 39.3948 4.30788 39.2424 4.288C39.0899 4.2648 38.9374 4.2532 38.785 4.2532C38.4337 4.2532 38.1204 4.32777 37.8453 4.47692C37.5736 4.62275 37.3581 4.82659 37.199 5.08842C37.04 5.34695 36.9604 5.64193 36.9604 5.97337V10.6367H35.4739ZM43.7752 13.6594C43.1687 13.6594 42.6467 13.5799 42.2092 13.4208C41.775 13.2617 41.4203 13.0513 41.1452 12.7894C40.8701 12.5276 40.6647 12.2409 40.5288 11.9293L41.8065 11.4023C41.896 11.5482 42.0153 11.7023 42.1644 11.8647C42.3169 12.0304 42.5224 12.1713 42.7809 12.2873C43.0427 12.4033 43.3791 12.4613 43.7901 12.4613C44.3536 12.4613 44.8192 12.3237 45.1871 12.0487C45.555 11.7769 45.739 11.3427 45.739 10.7461V9.24467H45.6445C45.555 9.40708 45.4258 9.58771 45.2567 9.78658C45.091 9.98544 44.8623 10.1578 44.5707 10.3036C44.279 10.4495 43.8995 10.5224 43.4322 10.5224C42.829 10.5224 42.2854 10.3815 41.8015 10.0998C41.3209 9.81475 40.9397 9.39548 40.658 8.84197C40.3796 8.28516 40.2404 7.60073 40.2404 6.78871C40.2404 5.97668 40.378 5.28066 40.6531 4.70064C40.9315 4.12062 41.3126 3.67649 41.7965 3.36825C42.2804 3.0567 42.829 2.90092 43.4421 2.90092C43.9161 2.90092 44.2989 2.98047 44.5906 3.13956C44.8822 3.29534 45.1093 3.47763 45.2717 3.68643C45.4374 3.89524 45.565 4.07919 45.6545 4.23828H45.7638V3.00035H47.2205V10.8058C47.2205 11.462 47.0681 12.0006 46.7631 12.4215C46.4582 12.8424 46.0456 13.154 45.5252 13.3562C45.0082 13.5584 44.4248 13.6594 43.7752 13.6594ZM43.7603 9.28942C44.1879 9.28942 44.5491 9.18999 44.8441 8.99112C45.1424 8.78894 45.3678 8.50059 45.5202 8.12607C45.676 7.74822 45.7539 7.29581 45.7539 6.76882C45.7539 6.25509 45.6777 5.80268 45.5252 5.41158C45.3728 5.02048 45.149 4.71555 44.854 4.4968C44.5591 4.27474 44.1945 4.16371 43.7603 4.16371C43.3129 4.16371 42.94 4.27971 42.6417 4.51172C42.3434 4.74041 42.118 5.05196 41.9656 5.44638C41.8164 5.84079 41.7418 6.28161 41.7418 6.76882C41.7418 7.26929 41.8181 7.70845 41.9705 8.08629C42.123 8.46413 42.3484 8.75911 42.6467 8.97124C42.9483 9.18336 43.3195 9.28942 43.7603 9.28942ZM52.5053 10.7908C51.753 10.7908 51.105 10.6301 50.5614 10.3086C50.0212 9.98378 49.6036 9.52805 49.3086 8.94141C49.0169 8.35144 48.8711 7.66039 48.8711 6.86825C48.8711 6.08606 49.0169 5.39666 49.3086 4.80007C49.6036 4.20348 50.0146 3.73781 50.5415 3.40305C51.0719 3.0683 51.6916 2.90092 52.4009 2.90092C52.8318 2.90092 53.2494 2.97218 53.6538 3.1147C54.0581 3.25722 54.421 3.48094 54.7425 3.78587C55.064 4.09079 55.3176 4.48686 55.5032 4.97408C55.6888 5.45798 55.7816 6.04628 55.7816 6.73899V7.26598H49.7113V6.15234H54.3249C54.3249 5.76125 54.2454 5.41489 54.0863 5.11328C53.9272 4.80836 53.7035 4.56806 53.4151 4.3924C53.1301 4.21674 52.7953 4.12891 52.4109 4.12891C51.9933 4.12891 51.6287 4.23165 51.3171 4.43714C51.0089 4.63932 50.7702 4.90447 50.6012 5.2326C50.4355 5.55741 50.3526 5.91039 50.3526 6.29155V7.16158C50.3526 7.67199 50.4421 8.10618 50.6211 8.46413C50.8034 8.82209 51.0569 9.09553 51.3817 9.28445C51.7066 9.47005 52.0861 9.56286 52.5202 9.56286C52.802 9.56286 53.0588 9.52308 53.2908 9.44354C53.5228 9.36068 53.7234 9.23804 53.8924 9.07564C54.0614 8.91323 54.1907 8.71271 54.2802 8.47408L55.6871 8.72763C55.5745 9.14193 55.3723 9.50485 55.0806 9.81641C54.7923 10.1246 54.4293 10.3649 53.9918 10.5373C53.5576 10.7063 53.0621 10.7908 52.5053 10.7908Z" fill="white"/>
</svg>
